PathFileType	4	(X/Y/Z)	C:\Git\research_data\Projects\torsion_deformities_healthy_kinematics\simulations\TD01\pre\static_01\marker_experimental.trc
DataRate	CameraRate	NumFrames	NumMarkers	Units	OrigDataRate	OrigDataStartFrame	OrigNumFrames
200	200	8	38	mm	200	176	200
Frame#	Time	C7			T10			CLAV			STRN			RBAK			LASI			RASI			SACR			RT1			RT2			RT3			RKNE			RS1			RS2			RS3			RANK			RHEE			RTOE			LT1			LT2			LT3			LKNE			LS1			LS2			LS3			LANK			LHEE			LTOE			LANM			RANM			RKNM			LKNM			RHJC			LHJC			LKJC			LAJC			RKJC			RAJC		
		X1	Y1	Z1	X2	Y2	Z2	X3	Y3	Z3	X4	Y4	Z4	X5	Y5	Z5	X6	Y6	Z6	X7	Y7	Z7	X8	Y8	Z8	X9	Y9	Z9	X10	Y10	Z10	X11	Y11	Z11	X12	Y12	Z12	X13	Y13	Z13	X14	Y14	Z14	X15	Y15	Z15	X16	Y16	Z16	X17	Y17	Z17	X18	Y18	Z18	X19	Y19	Z19	X20	Y20	Z20	X21	Y21	Z21	X22	Y22	Z22	X23	Y23	Z23	X24	Y24	Z24	X25	Y25	Z25	X26	Y26	Z26	X27	Y27	Z27	X28	Y28	Z28	X29	Y29	Z29	X30	Y30	Z30	X31	Y31	Z31	X32	Y32	Z32	X33	Y33	Z33	X34	Y34	Z34	X35	Y35	Z35	X36	Y36	Z36	X37	Y37	Z37	X38	Y38	Z38	

176	0.875000	609.274414	1226.563110	303.659119	608.873291	1034.850464	303.965698	622.355469	1224.294312	168.559540	622.990540	1100.663330	101.663643	702.758789	1160.688477	325.711609	515.841614	851.208313	133.468109	719.436829	859.185364	148.971588	606.220337	882.529358	303.794739	790.974487	662.187866	198.089172	803.075500	611.025269	239.477310	793.556213	596.405457	189.753052	815.406555	470.509247	226.943130	857.987000	358.941803	295.294708	859.125854	294.445435	312.333710	876.864624	302.089752	265.678040	895.285889	94.434990	285.682739	834.995728	74.211479	313.425049	920.427551	65.822792	144.433273	437.666870	664.857239	202.208176	429.838501	606.079346	232.748215	437.727783	601.598511	181.807434	410.494141	460.860260	226.036362	368.002991	341.306152	298.170013	360.430023	276.795502	310.595520	349.700775	288.539001	261.925354	336.211151	96.527626	308.778168	386.545013	76.845474	326.711487	285.369598	64.405014	164.645248	401.963837	91.799828	250.644318	817.458679	103.398300	239.627731	712.332825	431.299835	218.675797	523.269653	421.215607	220.811783	689.936208	795.130927	207.699389	541.016610	789.296118	196.359378	466.881897	441.037933	223.424072	369.087494	94.163727	279.711243	763.869690	450.904541	222.809464	856.372284	98.916645	262.655235	
177	0.880000	609.236755	1226.589600	303.587646	608.869446	1034.869263	303.948547	622.320801	1224.293823	168.492554	622.967651	1100.649414	101.610741	702.741760	1160.704712	325.659027	515.811279	851.203369	133.453644	719.421570	859.194702	148.950943	606.208679	882.529175	303.782318	790.980103	662.188599	198.062408	803.071411	611.041931	239.448898	793.566956	596.414734	189.728485	815.403442	470.507385	226.912125	857.940125	358.911865	295.238068	859.100586	294.440247	312.314240	876.856384	302.104401	265.688782	895.279846	94.442993	285.682648	834.978943	74.198502	313.422607	920.426575	65.826088	144.428925	437.656158	664.853943	202.224442	429.844116	606.082581	232.756668	437.740662	601.598267	181.825027	410.483856	460.862793	226.039078	368.011627	341.312195	298.182983	360.721466	276.776489	310.602448	349.713684	288.542053	261.951508	336.218384	96.525787	308.776581	386.545044	76.844849	326.719299	285.364136	64.398247	164.641541	401.961029	91.801826	250.657135	817.463501	103.392578	239.638199	712.343750	431.302399	218.657455	523.290527	421.216705	220.823135	689.924963	795.132924	207.680314	540.995414	789.287711	196.344906	466.887192	441.039749	223.431107	369.089706	94.163807	279.716858	763.873596	450.904892	222.784790	856.371674	98.917786	262.660423	
178	0.885000	609.201599	1226.592896	303.540070	608.871155	1034.875854	303.925293	622.294250	1224.274902	168.421555	622.940918	1100.620972	101.583321	702.748352	1160.680298	325.505554	515.788574	851.198975	133.428665	719.434998	859.186096	148.938400	606.208252	882.526917	303.784302	790.983093	662.204163	198.033844	803.057983	611.037781	239.438263	793.568481	596.419373	189.704819	815.395996	470.519714	226.893143	857.922791	358.889801	295.214081	859.094543	294.453217	312.304016	876.868652	302.100250	265.648132	895.281677	94.441002	285.675629	834.983521	74.211273	313.410522	920.428589	65.830811	144.424271	437.660248	664.861267	202.229019	429.840424	606.094055	232.743103	437.745758	601.596252	181.820251	410.487091	460.864532	226.056152	368.019379	341.306305	298.183411	360.421417	276.780792	310.605499	349.713135	288.540863	261.952179	336.221771	96.528053	308.793488	386.554779	76.850403	326.703888	285.358246	64.406464	164.636993	401.972351	91.800758	250.645508	817.454041	103.397034	239.625336	712.346680	431.301880	218.619125	522.998291	421.423615	220.586380	689.927481	795.114848	207.672664	540.974120	789.272818	196.328359	466.742691	441.144073	223.321266	369.097061	94.164406	279.719498	763.871338	450.910797	222.756134	856.367859	98.919018	262.650482	
179	0.890000	609.164246	1226.606445	303.490784	608.864319	1034.907349	303.887848	622.243713	1224.255005	168.386475	622.911560	1100.598633	101.537895	702.829102	1160.546631	325.244171	515.773682	851.175781	133.421768	719.426636	859.186279	148.931458	606.207520	882.521240	303.772675	790.983643	662.207031	198.019501	803.061523	611.050049	239.411270	793.569702	596.424500	189.681244	815.391968	470.518555	226.862762	857.939880	358.895111	295.204071	859.089294	294.440735	312.272949	876.864746	302.094696	265.618347	895.270630	94.445526	285.679779	834.977234	74.216431	313.421936	920.431396	65.827881	144.425064	437.665771	664.857178	202.213425	429.835419	606.086670	232.723709	437.576263	601.613037	181.526642	410.486877	460.866119	226.059158	368.028137	341.302673	298.191437	360.414398	276.783356	310.607025	349.750488	288.655151	261.850616	336.217285	96.532295	308.800720	386.557129	76.859283	326.711884	285.361176	64.398994	164.642715	401.964661	91.806274	250.641525	817.456177	103.392044	239.630508	712.341370	431.296753	218.597961	523.255249	421.236115	220.792389	689.925122	795.112012	207.667875	540.967513	789.252904	196.323643	466.871063	441.051117	223.425774	369.090973	94.169285	279.721123	763.866669	450.907654	222.730362	856.363403	98.918785	262.655144	
180	0.895000	609.134338	1226.626831	303.446259	608.854675	1034.900879	303.845001	622.226624	1224.245972	168.310944	622.880615	1100.590820	101.486504	702.756836	1160.629395	325.304993	515.768921	851.156982	133.436676	719.418091	859.178894	148.924759	606.206604	882.524109	303.758606	790.990784	662.209351	197.999573	802.699280	610.830261	239.247177	793.556824	596.436951	189.666016	815.382690	470.517181	226.830032	857.892822	358.939209	295.151337	859.082520	294.444824	312.274658	876.842346	302.090057	265.615936	895.270996	94.448273	285.675110	834.977783	74.223236	313.412659	920.419678	65.827446	144.422974	437.654053	664.852173	202.216599	429.832581	606.089722	232.720764	437.580566	601.608093	181.527847	410.481812	460.865448	226.058899	368.031616	341.308777	298.202179	360.719940	276.745789	310.610352	349.741425	288.652039	261.847137	336.217468	96.540810	308.798981	386.571075	76.863495	326.707581	285.358307	64.401848	164.645645	401.974762	91.807930	250.633102	817.452576	103.402618	239.622787	712.342896	431.298920	218.563217	523.242432	421.239166	220.784988	689.926599	795.111131	207.667913	540.971404	789.243660	196.339458	466.862122	441.052307	223.421944	369.096115	94.174370	279.716042	763.862793	450.908051	222.696625	856.361786	98.925446	262.648949	
181	0.900000	609.107361	1226.626953	303.386597	608.832581	1034.920898	303.812988	622.186584	1224.236084	168.242355	622.862366	1100.590820	101.441643	702.773254	1160.571533	325.125732	515.753113	851.137207	133.407425	719.416016	859.168945	148.898727	606.205994	882.526978	303.768707	790.968506	662.205444	197.994568	803.038696	611.020935	239.380585	793.575378	596.431824	189.646011	815.376099	470.521973	226.816147	857.904663	358.950897	295.132996	859.073303	294.450409	312.267029	876.863586	302.098572	265.607513	895.258728	94.455276	285.667450	834.975159	74.227646	313.415497	920.424805	65.827332	144.423309	437.649567	664.847107	202.209427	429.840332	606.080627	232.724060	437.597687	601.661804	181.630600	410.480316	460.871429	226.054611	368.031281	341.313446	298.208740	360.434204	276.783234	310.631927	349.702545	288.556793	261.973022	336.228394	96.536827	308.800140	386.567200	76.857819	326.696198	285.346771	64.402771	164.647186	401.976715	91.802414	250.631622	817.447327	103.399696	239.603378	712.342407	431.301239	218.522156	523.257629	421.237152	220.792770	689.923248	795.101248	207.655725	540.959027	789.226631	196.324993	466.868973	441.054291	223.423691	369.102554	94.169621	279.715881	763.859253	450.911606	222.669151	856.353027	98.927486	262.635414	
182	0.905000	609.073608	1226.623047	303.337341	608.808350	1034.921265	303.846466	622.149109	1224.209961	168.210983	622.824890	1100.569214	101.409073	702.768188	1160.583496	325.100403	515.733643	851.121948	133.409485	719.412659	859.164001	148.893234	606.209351	882.523743	303.744293	790.982544	662.215210	197.963562	803.032898	611.022156	239.368729	793.563110	596.435791	189.617874	815.370911	470.515106	226.783081	857.891418	358.911530	295.133972	859.059692	294.457794	312.249939	876.846802	302.104370	265.582825	895.263123	94.453094	285.672272	834.966675	74.231155	313.409180	920.424072	65.821609	144.419128	437.653961	664.848877	202.210266	429.894104	606.030823	232.755707	437.577209	601.655823	181.630569	410.482849	460.864777	226.059280	368.019836	341.307922	298.202576	360.728790	276.761749	310.630951	349.729919	288.664062	261.867004	336.229401	96.542572	308.795258	386.570557	76.850281	326.688782	285.337921	64.407883	164.649063	401.976318	91.814514	250.629501	817.446045	103.396805	239.601334	712.342957	431.309021	218.470825	523.261353	421.238129	220.777954	689.922858	795.093245	207.651009	540.947982	789.211128	196.325888	466.872101	441.051453	223.418617	369.102859	94.178543	279.712379	763.856934	450.912064	222.626953	856.354584	98.924950	262.636803	
183	0.910000	609.044678	1226.625244	303.283173	608.799500	1034.934570	303.807190	622.117493	1224.201538	168.103485	622.797852	1100.555298	101.359940	702.728638	1160.606689	325.042023	515.726318	851.111511	133.385117	719.416260	859.161499	148.869415	606.187439	882.525940	303.750946	790.996948	662.226562	197.944000	803.014893	611.019958	239.351974	793.571960	596.445435	189.594391	815.374573	470.511841	226.765671	857.919556	358.960327	295.147308	859.038696	294.453522	312.238281	876.858215	302.111511	265.571808	895.245056	94.456879	285.670044	834.969360	74.230164	313.405548	920.427246	65.814651	144.421738	437.651276	664.846985	202.219910	429.913055	606.024475	232.760086	437.706055	601.597473	181.747467	410.472870	460.866730	226.056793	368.010559	341.307251	298.191071	360.727692	276.759766	310.608398	349.732513	288.664215	261.865784	336.225739	96.535286	308.790405	386.569702	76.864029	326.694580	285.339569	64.399025	164.652664	401.967865	91.812180	250.638260	817.433655	103.396385	239.584824	712.354126	431.294830	218.460815	523.267456	421.242096	220.786026	689.926256	795.089153	207.637086	540.944189	789.201263	196.311624	466.870163	441.054413	223.421410	369.096802	94.173733	279.714333	763.864349	450.903336	222.613243	856.339355	98.926632	262.627434	
